<svg width="17" height="12" viewBox="0 0 17 12" fill="none" xmlns="http://www.w3.org/2000/svg">
<path d="M14.1712 2.07033C14.1712 1.2425 13.4209 0.565186 12.504 0.565186H10.0032V2.07033H12.504V4.06465L9.60304 7.33834H6.66878V3.57547H3.33439C1.49214 3.57547 0 4.92258 0 6.58576V8.84348H1.6672C1.6672 10.0927 2.78422 11.1012 4.16799 11.1012C5.55176 11.1012 6.66878 10.0927 6.66878 8.84348H10.4033L14.1712 4.59145V2.07033ZM4.16799 9.59605C3.70951 9.59605 3.33439 9.25739 3.33439 8.84348H5.00159C5.00159 9.25739 4.62647 9.59605 4.16799 9.59605Z" fill="#333333"/>
<path d="M6.66879 1.31787H2.50079V2.823H6.66879V1.31787Z" fill="#333333"/>
<path d="M14.1711 6.58569C12.7874 6.58569 11.6703 7.59414 11.6703 8.8434C11.6703 10.0927 12.7874 11.1011 14.1711 11.1011C15.5549 11.1011 16.6719 10.0927 16.6719 8.8434C16.6719 7.59414 15.5549 6.58569 14.1711 6.58569ZM14.1711 9.59597C13.7127 9.59597 13.3375 9.25731 13.3375 8.8434C13.3375 8.42949 13.7127 8.09083 14.1711 8.09083C14.6296 8.09083 15.0047 8.42949 15.0047 8.8434C15.0047 9.25731 14.6296 9.59597 14.1711 9.59597Z" fill="#333333"/>
</svg>
