<svg width="35" height="26" viewBox="0 0 35 26" fill="none" xmlns="http://www.w3.org/2000/svg">
<g clip-path="url(#clip0_33_127)">
<path fill-rule="evenodd" clip-rule="evenodd" d="M1.34615 0.5C0.6027 0.5 0 1.12183 0 1.88889C0 2.65594 0.6027 3.27778 1.34615 3.27778H33.6538C34.3972 3.27778 35 2.65594 35 1.88889C35 1.12183 34.3972 0.5 33.6538 0.5H1.34615ZM0 13C0 12.2329 0.6027 11.6111 1.34615 11.6111H33.6538C34.3972 11.6111 35 12.2329 35 13C35 13.7671 34.3972 14.3889 33.6538 14.3889H1.34615C0.6027 14.3889 0 13.7671 0 13ZM0 24.1111C0 23.3442 0.6027 22.7222 1.34615 22.7222H33.6538C34.3972 22.7222 35 23.3442 35 24.1111C35 24.8781 34.3972 25.5 33.6538 25.5H1.34615C0.6027 25.5 0 24.8781 0 24.1111Z" fill="black"/>
</g>
<defs>
<clipPath id="clip0_33_127">
<rect width="35" height="25" fill="white" transform="translate(0 0.5)"/>
</clipPath>
</defs>
</svg>
